HIERARCHY
ROOT root
{
	OFFSET 0.000000 0.000000 0.000000
	CHANNELS 6 Xposition Yposition Zposition Zrotation Yrotation Xrotation
	JOINT lhip
	{
		OFFSET 0.058581 -0.082280 -0.017664
		CHANNELS 3 Zrotation Yrotation Xrotation
		JOINT lknee
		{
			OFFSET 0.043451 -0.386469 0.008037
			CHANNELS 3 Zrotation Yrotation Xrotation
			JOINT lankle
			{
				OFFSET -0.014790 -0.426874 -0.037428
				CHANNELS 3 Zrotation Yrotation Xrotation
				JOINT ltoe
				{
					OFFSET 0.041054 -0.060286 0.122042
					CHANNELS 3 Zrotation Yrotation Xrotation
					End Site
					{
						OFFSET 0.000000 0.000000 0.000000
					}
				}
			}
		}
	}
	JOINT rhip
	{
		OFFSET -0.060310 -0.090513 -0.013543
		CHANNELS 3 Zrotation Yrotation Xrotation
		JOINT rknee
		{
			OFFSET -0.043257 -0.383688 -0.004843
			CHANNELS 3 Zrotation Yrotation Xrotation
			JOINT rankle
			{
				OFFSET 0.019056 -0.420046 -0.034562
				CHANNELS 3 Zrotation Yrotation Xrotation
				JOINT rtoe
				{
					OFFSET -0.034840 -0.062106 0.130323
					CHANNELS 3 Zrotation Yrotation Xrotation
					End Site
					{
						OFFSET 0.000000 0.000000 0.000000
					}
				}
			}
		}
	}
	JOINT lowerback
	{
		OFFSET 0.004439 0.124404 -0.038385
		CHANNELS 3 Zrotation Yrotation Xrotation
		JOINT upperback
		{
			OFFSET 0.004488 0.137956 0.026820
			CHANNELS 3 Zrotation Yrotation Xrotation
			JOINT chest
			{
				OFFSET -0.002265 0.056032 0.002855
				CHANNELS 3 Zrotation Yrotation Xrotation
				JOINT lowerneck
				{
					OFFSET -0.013390 0.211636 -0.033468
					CHANNELS 3 Zrotation Yrotation Xrotation
					JOINT upperneck
					{
						OFFSET 0.010113 0.088937 0.050410
						CHANNELS 3 Zrotation Yrotation Xrotation
						End Site
						{
							OFFSET 0.000000 0.000000 0.000000
						}
					}
				}
				JOINT lclavicle
				{
					OFFSET 0.071702 0.114000 -0.018898
					CHANNELS 3 Zrotation Yrotation Xrotation
					JOINT lshoulder
					{
						OFFSET 0.122921 0.045205 -0.019046
						CHANNELS 3 Zrotation Yrotation Xrotation
						JOINT lelbow
						{
							OFFSET 0.255332 -0.015649 -0.022946
							CHANNELS 3 Zrotation Yrotation Xrotation
							JOINT lwrist
							{
								OFFSET 0.265709 0.012698 -0.007375
								CHANNELS 3 Zrotation Yrotation Xrotation
								End Site
								{
									OFFSET 0.000000 0.000000 0.000000
								}
							}
						}
					}
				}
				JOINT rclavicle
				{
					OFFSET -0.082954 0.112472 -0.023707
					CHANNELS 3 Zrotation Yrotation Xrotation
					JOINT rshoulder
					{
						OFFSET -0.113228 0.046853 -0.008472
						CHANNELS 3 Zrotation Yrotation Xrotation
						JOINT relbow
						{
							OFFSET -0.260127 -0.014369 -0.031269
							CHANNELS 3 Zrotation Yrotation Xrotation
							JOINT rwrist
							{
								OFFSET -0.269108 0.006794 -0.006027
								CHANNELS 3 Zrotation Yrotation Xrotation
								End Site
								{
									OFFSET 0.000000 0.000000 0.000000
								}
							}
						}
					}
				}
			}
		}
	}
}
MOTION
Frames: 10
Frame Time: 0.033333
-0.846661 0.927108 0.974781 81.248774 2.619570 86.089192 -4.989411 -3.819557 -4.035847 -0.056037 -1.222492 14.933872 6.983530 13.227929 -19.631194 0.000000 -0.000000 0.000000 -7.151071 -1.679370 -10.551455 -9.083153 -7.235060 28.752182 -0.092542 -19.260870 -0.565532 0.000000 -0.000000 0.000000 2.904134 0.858716 10.825650 0.643497 0.374769 4.269063 0.768014 1.540284 -3.115027 -6.013226 -2.113458 9.947096 1.337001 3.811452 2.870936 -19.748099 -0.399958 7.221787 -50.232080 -1.937902 2.059707 7.961002 -50.606870 8.739195 -16.232136 -14.859859 2.332816 20.602803 6.817486 8.885848 56.985559 -2.760588 6.064545 -13.052767 31.387600 -9.556641 21.469088 11.177119 -8.346960 
-0.847574 0.927154 0.975126 81.875013 2.774760 85.709726 -4.907294 -3.580507 -3.771643 -0.287911 -2.350600 15.123684 7.305301 13.542825 -19.429211 0.000000 -0.000000 0.000000 -6.952630 -1.347015 -11.191621 -9.036898 -5.858320 30.810931 -0.822762 -19.755082 1.060365 0.000000 -0.000000 0.000000 2.952584 0.597706 11.981221 0.679854 0.413403 3.802256 0.851522 1.429247 -3.205215 -5.745539 -2.425103 8.838044 1.212786 3.747592 3.714741 -19.579897 -0.910504 6.994035 -48.870297 -1.382346 1.818877 4.099421 -49.711761 13.333052 -16.800541 -15.222009 2.156936 20.239504 7.494049 9.899231 56.653115 -2.862616 5.616741 -12.834074 31.907646 -8.246464 21.312928 11.423679 -9.682845 
-0.848728 0.927524 0.975180 82.256347 2.787308 85.253146 -4.962350 -3.815645 -3.343171 -0.463481 -2.762355 15.135589 7.675189 14.014173 -19.268723 0.000000 -0.000000 0.000000 -6.949464 -0.567809 -12.043838 -8.745973 -5.067833 33.163119 -1.455692 -20.619709 2.137259 0.000000 -0.000000 0.000000 2.758368 0.504392 13.037646 0.860636 0.542449 3.753273 0.927345 1.456128 -3.134595 -5.465086 -2.346686 7.279303 1.008642 3.328900 3.958777 -19.256257 -1.596816 6.677401 -47.691554 -1.018093 2.576467 1.052524 -48.839806 16.319022 -17.746589 -14.760618 1.749476 19.756774 7.953435 10.225260 56.220317 -2.956901 6.083348 -13.234008 32.473821 -8.390806 22.407423 10.980315 -10.595172 
-0.850441 0.928502 0.975523 83.242355 2.782075 84.299549 -5.103422 -4.007891 -2.436489 -0.721440 -3.732660 15.149481 7.785547 14.390489 -18.900736 0.000000 -0.000000 0.000000 -6.971088 -0.077283 -12.754219 -8.892147 -4.922597 35.879079 -2.047375 -21.699719 4.391714 0.000000 -0.000000 0.000000 2.299087 0.169391 14.795438 1.147613 0.287932 3.666360 1.131223 1.406806 -2.950797 -5.177028 -2.003586 5.469313 1.094165 2.876683 3.946248 -18.454618 -2.775992 7.096150 -46.853101 -0.513447 3.371598 -2.045750 -47.056674 19.925123 -17.891873 -15.709382 1.884927 19.224896 8.848107 10.237742 55.718425 -3.248020 6.586250 -13.557184 32.562895 -8.938236 23.385099 11.240948 -11.933364 
-0.851685 0.929305 0.975453 83.810867 2.797146 84.205665 -5.104355 -4.130659 -2.584549 -0.914924 -4.220489 15.450606 8.039556 14.509226 -18.734303 0.000000 -0.000000 0.000000 -6.987107 0.229860 -13.854390 -9.044688 -5.094677 37.476515 -2.652128 -22.504532 6.598404 0.000000 -0.000000 0.000000 2.068413 -0.049277 15.320996 1.287749 0.210080 3.575031 1.262951 1.191280 -3.029338 -5.308996 -2.061233 4.845868 1.283681 3.356332 3.733981 -18.132631 -3.868436 8.510783 -46.790432 -0.247704 3.395254 -2.178306 -45.965466 19.428982 -17.109099 -15.978118 1.604714 18.748392 9.527466 10.313088 55.720584 -3.294965 6.746344 -13.902553 31.884811 -9.457667 24.135721 10.945910 -12.160803 
-0.852591 0.930484 0.974916 84.539223 2.870073 84.006479 -5.100293 -4.446507 -2.509071 -1.152377 -4.793228 15.532686 8.160402 14.843895 -18.440973 0.000000 -0.000000 0.000000 -6.893520 0.648873 -14.994115 -9.323924 -5.519845 39.291463 -3.187807 -23.450000 9.040091 0.000000 -0.000000 0.000000 1.949907 -0.473153 16.161007 1.274524 0.248879 3.135008 1.231120 0.983863 -2.942936 -5.235375 -2.341200 4.304346 1.616133 3.653257 3.370470 -17.543691 -4.221383 9.271703 -46.561664 -0.388615 3.293030 -3.515910 -43.851926 20.710926 -18.513429 -15.651303 1.832916 18.176725 9.788476 9.995385 55.502854 -3.219930 7.078509 -13.649069 30.962254 -9.179137 24.746504 10.940012 -12.435722 
-0.853209 0.931400 0.974387 85.375350 2.922287 84.040490 -5.105342 -4.351448 -2.758718 -1.296780 -5.518640 15.841538 8.118731 14.849499 -18.217771 0.000000 -0.000000 0.000000 -6.809081 0.584709 -16.138803 -9.587552 -5.867958 40.955722 -3.085270 -23.823860 9.533702 0.000000 -0.000000 0.000000 1.918495 -0.754539 16.551464 1.203434 0.169131 2.628447 1.155058 0.907088 -3.031533 -4.946540 -2.289685 4.256674 1.927924 3.735615 3.139815 -17.324628 -4.675745 9.578948 -45.993651 -0.246826 3.341815 -4.608140 -41.243112 21.604894 -18.599453 -15.791145 3.290124 17.737157 10.095296 10.020246 55.116572 -3.428244 7.187049 -13.050427 29.827970 -8.359729 25.052145 10.761273 -12.454071 
-0.853593 0.932052 0.974221 85.943651 2.869181 83.902306 -5.201153 -4.718220 -2.673417 -1.437290 -5.763186 15.954435 8.001361 14.949380 -18.244352 0.000000 -0.000000 0.000000 -6.628207 1.113520 -16.748933 -9.843461 -6.193432 42.206969 -3.555622 -24.115018 7.831441 0.000000 -0.000000 0.000000 1.806943 -0.700167 16.711338 1.127297 0.241914 2.743777 1.037127 0.950797 -3.082167 -4.571166 -2.356755 3.804122 1.978069 3.047116 3.037745 -17.276701 -4.988400 8.848602 -45.536778 0.056924 3.662839 -4.367521 -38.650045 21.855936 -19.761308 -15.198295 5.053311 17.531746 10.261241 9.767251 54.427875 -3.903467 7.138629 -12.406669 28.854276 -6.787325 27.033963 10.763725 -12.370840 
-0.853286 0.932587 0.974359 86.364423 2.904216 83.606137 -5.254218 -4.775097 -2.303569 -1.585783 -6.448325 15.944255 7.570866 15.254029 -18.429290 0.000000 -0.000000 0.000000 -6.153179 2.120905 -16.777209 -9.147522 -5.623687 43.015037 -2.847584 -22.422757 2.318415 0.000000 -0.000000 0.000000 1.889749 -0.469072 16.662283 1.001143 0.252838 3.325350 0.859592 1.378236 -3.371253 -4.022891 -1.797592 3.845062 2.232005 1.450628 2.718738 -17.542041 -5.417386 6.528991 -44.555021 1.088927 4.085833 -4.226473 -35.695650 22.002898 -20.613386 -14.769008 6.428099 17.077303 10.525944 9.774550 53.818923 -4.966236 6.756547 -11.300089 28.378476 -3.472117 27.433918 9.930320 -12.827143 
-0.852220 0.931789 0.974191 86.816184 2.870389 83.495723 -5.320889 -5.289375 -2.196587 -2.032709 -7.364642 16.134014 7.282470 16.357401 -18.314585 0.000000 -0.000000 0.000000 -5.386906 3.535605 -16.808400 -7.577677 -4.425172 43.136147 -2.285753 -21.503271 -4.045805 0.000000 -0.000000 0.000000 1.785193 -0.305582 16.296973 0.724745 0.334546 3.501569 0.542408 2.066864 -3.421742 -3.702456 -1.958684 4.279383 2.997588 0.093593 2.215850 -17.380386 -5.652256 5.192004 -43.002160 2.077486 4.268688 -3.866498 -33.162820 20.016483 -19.743872 -14.543659 7.137100 16.798765 10.872668 10.180131 52.866471 -6.250895 6.520211 -10.012137 27.083258 -0.776563 27.838041 9.184658 -11.478607 
